<?xml version="1.0"?>
<svg width="640" height="480" xmlns="http://www.w3.org/2000/svg" xmlns:svg="http://www.w3.org/2000/svg">
 <!-- Created with SVG-edit - https://github.com/SVG-Edit/svgedit-->
 <g class="layer">
  <title>Layer 1</title>
  <ellipse cx="306.9" cy="230.90001" fill="#7fff00" id="svg_3" rx="139.49999" ry="139.49999" stroke="#000000" stroke-width="5"/>
  <ellipse cx="282.39999" cy="233.39999" fill="#000000" id="svg_4" rx="16" ry="16" stroke="#000000" stroke-width="5" transform="matrix(1 0 0 1 0 0)"/>
  <ellipse cx="330.39999" cy="232.39999" fill="#000000" id="svg_6" rx="16" ry="16" stroke="#000000" stroke-width="5"/>
  <path d="m224.39999,280.20001c2.96933,0 3.66133,0 4.38533,0c1.448,0 2.13068,0 2.78934,0c0.978,0 1.992,0 2.70934,0c1.116,0 1.86333,0 2.94933,0c0.68401,0 1.6875,0 2.37651,0c1.12349,0 1.96083,0 2.86217,0c0.46967,0 1.437,0 2.92799,0c0.50017,0 1.5045,0 2.01067,0c1.02533,0 1.54651,0 3.15601,0c0.55516,0 1.69949,0 2.29066,0c0.60516,0 1.8615,0 2.51466,0c1.36134,0 2.07085,0 2.79735,0c0.74048,0 1.49197,0 2.2515,0c0.7645,0 1.53101,0 3.8125,0c0.74533,0 1.48267,0 2.21399,0c0.72733,0 1.45267,0 2.17801,0c0.72733,0 1.45865,0 2.94131,0c0.755,0 1.52002,0 2.29501,0c0.785,0 1.57999,0 2.38501,0c0.815,0 1.63998,0.00018 3.31998,0c0.85486,-0.00009 1.71869,0.00012 2.59052,-0.00452c0.87881,-0.00467 1.76373,-0.01337 2.6535,-0.03149c0.89389,-0.01822 1.79132,-0.03543 3.58932,-0.13068c0.90039,-0.0477 1.80014,-0.11533 2.70001,-0.186c0.90015,-0.07068 1.7999,-0.14832 2.69998,-0.22198c0.8999,-0.07367 1.79919,-0.15479 3.60001,-0.25867c0.89948,-0.05188 1.79858,-0.08478 2.6955,-0.1095c0.89374,-0.02463 1.78363,-0.03833 2.66852,-0.04651c0.87878,-0.00812 1.75064,-0.00998 3.46933,-0.01065c0.84549,-0.00034 1.68399,0 2.51849,0c0.8335,0 1.66901,0 2.50949,0c0.84851,0 1.70801,0 3.47202,0c0.90982,0 1.83865,0 2.78549,0c0.96384,0 1.94366,0 2.93851,0c1.00882,0 2.03067,0 4.10931,0c1.0545,0 2.116,0 3.18152,0c1.0665,0 2.13098,0 3.19049,0c1.05151,0 2.09201,0 4.12799,0c0.99036,0 1.96268,0 2.91901,0c0.94235,0 1.87268,0 2.793,0c0.91235,0 1.81866,0 3.62134,0c0.89966,0 1.79733,0 2.69101,0c0.88766,0 1.76733,0 2.63699,0c0.85767,0 1.70132,0 3.33865,0c0.79019,0 1.56134,0 2.31451,0c0.73618,0 1.45633,0 2.1615,0c0.69116,0 1.36932,0 2.69067,0c0.64465,0 1.27731,0 1.896,0c0.60266,0 1.18732,0 1.75198,0c0.54266,0 1.06134,0 2.01868,0c0.43533,0 0.84268,0 1.224,0c0.35733,0 0.69266,0 1.008,0c0.29733,0 0.57867,0 1.10135,0c0.24515,0 0.48132,0 1.14581,0c1.02084,0 2.04144,-0.45636 2.77783,0.22131c0.61487,0.56586 0.24301,1.64001 0.24301,2.612c0,0.75601 0.02579,1.68753 -0.35266,2.47116c-0.42929,0.88889 -0.6113,1.69598 -0.64749,2.67435c-0.02527,0.68298 -0.19141,1.57373 -0.52069,2.52118c-0.25735,0.74045 -0.77521,1.4837 -1.12198,2.30533c-0.38974,0.92343 -0.29965,1.73416 -0.52652,2.51199c-0.30148,1.03369 -0.8819,1.69296 -1.29681,2.13535c-0.93085,0.99252 -1.49106,1.50912 -2.0755,2.06815c-0.61533,0.58859 -0.93094,0.89697 -1.97968,1.77902c-0.72183,0.60712 -1.09964,0.89526 -1.85333,1.46414c-0.73709,0.55637 -1.79993,1.32043 -2.47266,1.77884c-0.6488,0.44211 -1.29648,0.8678 -2.31934,1.45718c-0.71265,0.41064 -1.4686,0.80139 -1.85419,1c-0.7822,0.40286 -1.97995,0.99841 -2.78049,1.40134c-0.81012,0.40775 -1.22296,0.61295 -2.05585,1.05582c-1.315,0.69922 -1.76227,0.96799 -2.7045,1.491c-0.48386,0.26855 -0.97122,0.54886 -2,1.04199c-0.52072,0.2496 -2.15775,0.8735 -2.72232,1.04184c-0.5668,0.16901 -1.71655,0.46591 -2.29068,0.61868c-0.57324,0.15256 -2.26193,0.67435 -2.80399,0.892c-0.54071,0.2171 -1.59552,0.70901 -2.12134,0.95734c-1.0517,0.4967 -1.56998,0.76862 -2.66666,1.16666c-1.10583,0.40137 -1.68903,0.52939 -2.26935,0.672c-1.17178,0.28793 -1.76968,0.40427 -2.36533,0.54401c-1.80246,0.42285 -2.3992,0.59949 -2.99866,0.76999c-0.60052,0.17084 -1.7995,0.52383 -2.40002,0.69467c-0.59946,0.1705 -2.39896,0.63577 -3,0.76599c-0.59897,0.12976 -1.79922,0.34988 -2.39999,0.44c-0.5993,0.0899 -1.19775,0.18643 -2.99982,0.32535c-0.59824,0.04611 -1.78952,0.09589 -2.37933,0.12134c-0.58484,0.02524 -1.73706,0.06494 -2.85419,0.16666c-1.08582,0.09888 -1.61853,0.18585 -2.6875,0.33334c-0.5405,0.07458 -1.08612,0.17621 -2.8125,0.33331c-0.60846,0.05536 -1.23431,0.091 -2.51733,0.13068c-0.6492,0.02008 -1.29861,0.02762 -1.944,0.03149c-1.87195,0.0112 -2.46249,0.00452 -3.03598,0.00452c-1.108,0 -1.6485,0 -2.7175,0c-0.53452,0 -2.17334,0 -2.73718,0c-1.15067,0 -1.7355,0 -2.32532,0c-1.19067,0 -2.38934,0.00098 -2.9895,-0.00018c-1.20435,-0.00235 -1.81055,-0.00806 -2.42068,-0.02066c-0.6152,-0.0127 -1.86539,-0.05142 -3.14581,-0.14584c-0.65503,-0.04831 -1.3179,-0.10504 -2.64801,-0.28c-0.66553,-0.08752 -1.32507,-0.19412 -1.97549,-0.315c-0.6416,-0.11923 -2.46866,-0.5542 -3.0405,-0.72366c-0.56116,-0.16632 -1.64944,-0.53284 -2.18402,-0.72534c-1.06992,-0.38531 -2.15103,-0.7919 -2.70667,-0.98917c-1.12946,-0.40097 -1.70285,-0.59296 -2.27866,-0.77933c-1.14511,-0.37061 -1.71255,-0.54788 -2.83334,-0.85416c-1.07813,-0.29462 -1.60971,-0.41309 -2.64581,-0.66666c-0.51028,-0.12488 -1.52695,-0.35919 -3.02084,-0.8215c-0.50266,-0.15555 -1.50113,-0.51144 -2,-0.69934c-1.00233,-0.37753 -1.50104,-0.57791 -2.99983,-1.17932c-0.49918,-0.20032 -1.49161,-0.60565 -1.97934,-0.82068c-0.96794,-0.42676 -1.4541,-0.63101 -2.799,-1.40051c-0.44019,-0.25186 -1.27177,-0.79385 -2.03917,-1.35333c-0.36739,-0.26785 -1.35068,-1.0571 -2.17732,-1.76816c-0.50616,-0.43539 -0.98222,-0.89444 -2.14801,-1.65717c-0.64771,-0.42377 -1.36353,-0.78943 -2.052,-1.20001c-0.98105,-0.58505 -1.54523,-0.98865 -2.2845,-1.59998c-0.47504,-0.39282 -1.43922,-1.20395 -1.9735,-1.60001c-0.81755,-0.60605 -1.37894,-0.98068 -2.12567,-1.59985c-0.68985,-0.57199 -1.26112,-1.14185 -2.03633,-1.91483c-0.58167,-0.57999 -1.45337,-1.18979 -1.76382,-1.98532c-0.33015,-0.84601 -0.12151,-1.70001 -0.12151,-2.60001c0,-0.89999 0,-1.79999 0,-2.71066l0,-0.91049l0,-0.8175" fill="none" id="svg_23" stroke="#000000" stroke-width="5"/>
 </g>
</svg>